<?xml version="1.0" standalone="no"?>
<!DOCTYPE svg PUBLIC "-//W3C//DTD SVG 20010904//EN"
 "http://www.w3.org/TR/2001/REC-SVG-20010904/DTD/svg10.dtd">
<svg version="1.0" xmlns="http://www.w3.org/2000/svg"
 width="700.000000pt" height="700.000000pt" viewBox="0 0 700.000000 700.000000"
 preserveAspectRatio="xMidYMid meet">
<metadata>
Created by potrace 1.14, written by Peter Selinger 2001-2017
</metadata>
<g transform="translate(0.000000,700.000000) scale(0.100000,-0.100000)"
fill="#000000" stroke="none">
<path d="M3457 6564 c-1 -1 -74 -4 -162 -8 -88 -3 -171 -8 -185 -10 -14 -3
-56 -7 -93 -11 -37 -3 -76 -8 -85 -10 -9 -1 -39 -6 -67 -9 -27 -4 -68 -11 -90
-16 -22 -5 -56 -11 -76 -14 -119 -18 -422 -108 -577 -172 -461 -190 -797 -440
-1142 -850 -46 -55 -172 -239 -228 -334 -159 -268 -313 -655 -313 -785 -1
-199 133 -363 328 -402 15 -3 1248 -5 2738 -5 2895 -1 2746 -3 2848 49 144 73
234 260 201 419 -26 127 -139 419 -225 579 -75 142 -207 350 -272 431 -159
197 -308 352 -439 457 -26 21 -53 44 -60 51 -7 6 -62 46 -123 88 -336 232
-704 386 -1130 473 -84 18 -91 19 -170 31 -27 4 -52 8 -55 9 -3 1 -41 5 -85
10 -44 4 -89 9 -100 11 -38 4 -434 21 -438 18z m139 -682 c74 -38 112 -97 118
-180 12 -164 -153 -280 -303 -212 -74 34 -116 93 -126 175 -20 168 161 294
311 217z m-1773 -428 c58 -20 122 -87 137 -145 35 -128 -54 -258 -189 -276
-80 -11 -178 44 -218 121 -22 42 -25 132 -7 176 25 60 82 109 154 133 29 10
77 7 123 -9z m3538 -18 c25 -16 59 -50 75 -75 25 -39 29 -56 28 -113 0 -59 -4
-73 -34 -117 -100 -147 -311 -125 -382 39 -22 50 -19 130 7 179 18 35 79 89
119 106 53 23 134 14 187 -19z"/>
<path d="M745 3486 c-133 -28 -227 -78 -323 -174 -87 -87 -98 -101 -138 -186
-168 -353 12 -778 380 -901 39 -13 89 -26 111 -30 49 -7 5410 -8 5445 0 14 3
39 8 55 10 125 22 307 145 386 261 39 57 79 144 98 213 27 96 23 268 -7 358
-69 206 -223 362 -432 435 l-65 23 -2725 1 c-2150 2 -2738 0 -2785 -10z"/>
<path d="M585 1738 c-49 -18 -99 -63 -124 -112 -21 -43 -23 -61 -23 -199 -1
-198 8 -275 44 -387 73 -225 239 -413 460 -518 57 -28 95 -42 123 -48 6 -1 29
-7 51 -13 23 -6 64 -14 90 -17 67 -9 4462 -11 4549 -2 175 17 301 62 441 158
107 75 233 228 288 352 29 64 63 185 72 253 12 89 8 341 -7 392 -16 58 -80
124 -137 141 -53 16 -5782 16 -5827 0z"/>
</g>
</svg>
